<svg id="Layer_1" data-name="Layer 1" xmlns="http://www.w3.org/2000/svg" viewBox="0 0 160 50"><defs><style>.cls-1,.cls-3,.cls-4,.cls-5{fill:#fff;}.cls-2{font-size:12.82px;letter-spacing:0.03em;}.cls-2,.cls-3{font-family:Raleway-Medium, Raleway;font-weight:500;}.cls-3{font-size:12.56px;letter-spacing:0.03em;}.cls-4{font-size:24.64px;}.cls-4,.cls-5{font-family:ThintaCintaRegular, Thinta Cinta;}.cls-5{font-size:20.46px;}</style></defs><circle cx="46.85" cy="19.82" r="1.11" transform="translate(-0.29 38.93) rotate(-45)"/><path class="cls-1" d="M37.71,29.94a3.68,3.68,0,1,1,3.67-3.67A3.91,3.91,0,0,1,37.71,29.94Z"/><path d="M32,11.37h0a.93.93,0,0,1,.94-.93h9.92a3.51,3.51,0,0,1,3,2.1l.93,1.55H48a5.49,5.49,0,0,1,5.35,5.52V32.76a5.42,5.42,0,0,1-5.26,5.52H35.18a1,1,0,1,1,0-2H48.24a3.28,3.28,0,0,0,3.13-3.48V19.61a3.29,3.29,0,0,0-3.13-3.48h-2a1.13,1.13,0,0,1-.93-.66l-1.24-2.29c-.31-.7-.75-.88-1.06-.88H32.93A.93.93,0,0,1,32,11.37Z"/><path d="M35.26,36.24H26.81a3.37,3.37,0,0,1-3.13-3.57V19.61a3.27,3.27,0,0,1,3.13-3.48h2v-2h-1.9a5.4,5.4,0,0,0-5.26,5.5V32.76a5.38,5.38,0,0,0,5.26,5.52h8.24"/><path d="M27.08,14.11h3.48a1,1,0,0,1,1,1V26.45a6.21,6.21,0,1,0,6.21-6.2,5,5,0,0,0-1.77.31.85.85,0,0,1-.31,0,1.12,1.12,0,0,1-1-.71,1.25,1.25,0,0,1,.66-1.33,7.29,7.29,0,0,1,2.42-.35,8.34,8.34,0,0,1,8.33,8.33,8.34,8.34,0,1,1-16.67,0V16.14H27"/><path class="cls-1" d="M93.34,22.07V13.74l.28.62h-3.4V13.23h4.27v8.84Z"/><path d="M67,20a2.15,2.15,0,0,1-.35,1.21,2.4,2.4,0,0,1-1,.8,2.9,2.9,0,0,1-1.32.29H60.15V13.3h4.46a1.83,1.83,0,0,1,1.09.33,2.21,2.21,0,0,1,.71.86,2.58,2.58,0,0,1,.24,1.09,2.41,2.41,0,0,1-.33,1.23,2,2,0,0,1-.95.85,2.2,2.2,0,0,1,1.21.84A2.38,2.38,0,0,1,67,20Zm-5.74-5.67v3h2.85a1.34,1.34,0,0,0,.72-.2,1.51,1.51,0,0,0,.67-1.29,1.7,1.7,0,0,0-.17-.76,1.44,1.44,0,0,0-.47-.54,1.18,1.18,0,0,0-.67-.2Zm4.59,5.46A1.71,1.71,0,0,0,65.7,19a1.57,1.57,0,0,0-.49-.56,1.19,1.19,0,0,0-.71-.22H61.29v3.08h3.12a1.39,1.39,0,0,0,.75-.21,1.61,1.61,0,0,0,.53-.57A1.49,1.49,0,0,0,65.88,19.74Z"/><path d="M69.3,22.25V13.3h1.14v9Z"/><path d="M76.86,22.32a3.51,3.51,0,0,1-1.64-.39,4.33,4.33,0,0,1-1.34-1A5,5,0,0,1,73,19.43a4.59,4.59,0,0,1-.31-1.68A4.69,4.69,0,0,1,73,16a4.55,4.55,0,0,1,.88-1.45,4,4,0,0,1,1.32-1,4.26,4.26,0,0,1,3.81.19,3.44,3.44,0,0,1,1.27,1.41l-.87.6a2.68,2.68,0,0,0-1.07-1.16,3.1,3.1,0,0,0-1.5-.38,2.67,2.67,0,0,0-1.24.29,3,3,0,0,0-.95.79A3.64,3.64,0,0,0,74,16.46a4.15,4.15,0,0,0-.21,1.32,3.8,3.8,0,0,0,.24,1.35A3.37,3.37,0,0,0,75.73,21,2.77,2.77,0,0,0,77,21.3a2.84,2.84,0,0,0,1.46-.4,4.53,4.53,0,0,0,1.32-1.19v1.17A3.66,3.66,0,0,1,76.86,22.32Zm2.73-3.67H77.66v-.86h2.89v4.46h-1Z"/><path d="M88.22,15.18a1.58,1.58,0,0,0-.41-.34,3.26,3.26,0,0,0-.56-.3,4.3,4.3,0,0,0-.69-.22,4,4,0,0,0-.78-.08,2.41,2.41,0,0,0-1.52.39,1.3,1.3,0,0,0-.5,1.07,1.09,1.09,0,0,0,.26.76,1.8,1.8,0,0,0,.77.45,13.34,13.34,0,0,0,1.33.36,9.81,9.81,0,0,1,1.62.49,2.68,2.68,0,0,1,1.05.78,2.1,2.1,0,0,1,.36,1.29,2.42,2.42,0,0,1-.24,1.11,2.17,2.17,0,0,1-.69.78,2.88,2.88,0,0,1-1,.45,5.17,5.17,0,0,1-1.28.15,5.83,5.83,0,0,1-1.33-.15,5,5,0,0,1-1.23-.42,5.42,5.42,0,0,1-1.09-.69l.54-1a3.06,3.06,0,0,0,.53.42,3.83,3.83,0,0,0,.73.38,4.74,4.74,0,0,0,1.87.4A2.71,2.71,0,0,0,87.41,21a1.14,1.14,0,0,0,.53-1,1.11,1.11,0,0,0-.3-.81,2.29,2.29,0,0,0-.87-.5c-.39-.13-.86-.27-1.42-.4a9.67,9.67,0,0,1-1.52-.5A2.16,2.16,0,0,1,82.9,17a1.92,1.92,0,0,1-.31-1.14A2.41,2.41,0,0,1,83,14.43a2.54,2.54,0,0,1,1.15-.9,4.26,4.26,0,0,1,1.65-.3,4.78,4.78,0,0,1,2.11.48,4.23,4.23,0,0,1,.83.54Z"/><text class="cls-2" transform="translate(107.16 22.11)">RIES</text><text class="cls-3" transform="translate(97.33 22.03)">O</text><text class="cls-4" transform="translate(59.51 40.4)">C</text><text class="cls-5" transform="translate(78.08 40.4)">hallenge</text><path d="M76.86,22.32a3.51,3.51,0,0,1-1.64-.39,4.33,4.33,0,0,1-1.34-1A5,5,0,0,1,73,19.43a4.59,4.59,0,0,1-.31-1.68A4.69,4.69,0,0,1,73,16a4.55,4.55,0,0,1,.88-1.45,4,4,0,0,1,1.32-1,4.26,4.26,0,0,1,3.81.19,3.44,3.44,0,0,1,1.27,1.41l-.87.6a2.68,2.68,0,0,0-1.07-1.16,3.1,3.1,0,0,0-1.5-.38,2.67,2.67,0,0,0-1.24.29,3,3,0,0,0-.95.79A3.64,3.64,0,0,0,74,16.46a4.15,4.15,0,0,0-.21,1.32,3.8,3.8,0,0,0,.24,1.35A3.37,3.37,0,0,0,75.73,21m3.86-2.37H77.66v-.86h2.89v4.46h-1Z"/></svg>